# xmcd
#
# Track frame offsets: 
#        150
#        9800
#        22417
#        36517
#        51685
#        66760
#        83785
#        97017
#        123043
#        136832
#        150728
#        166778
#        182077
#        191969
#        205670
#
# Disc length: 2928 seconds
#
# Revision: 0
# Processed by: cddbd v1.5.2PL0 Copyright (c) Steve Scherf et al.
# Submitted via: ExactAudioCopy v0.95b4
#
DISCID=cd0b6e0f
DTITLE=Various Artist - Prime Cuts of Bluegrass , Volume 97
DYEAR=2009
DGENRE=Bluegrass
TTITLE0=Heart Wrenching Love Sick Memories - Rhonda Vincent and The Rage
TTITLE1=Three Silver Dollars - David Parmley and Continental Divide
TTITLE2=Gone To Carolina - Special Consensus
TTITLE3=Lonely Rain - Gold Heart
TTITLE4=That's What Country Folks Do - Lost and Found
TTITLE5=Last Train To Kitty Hawk - Balsam Range
TTITLE6=Dog House Blues - Mickey Harris
TTITLE7=Old Enough ( featuring Ricky Skaggs and Ashley Monroe) - The Rac
TTITLE7=onteurs
TTITLE8=Hold The Line - Rogers and Johnson
TTITLE9=Bury Me In Dixie - Wayne Taylor and Appaloosa
TTITLE10=The Angels Sing To Me - The Toy Hearts
TTITLE11=I Can't Help Smiling - Lakeside
TTITLE12=Keep My Skillet Good And Greasy - Whitetop Mountain Band
TTITLE13=Dirty Old Town - Kirby Knob Boys
TTITLE14=In The Hollow - CrossPoint String Band
EXTD=
EXTT0=
EXTT1=
EXTT2=
EXTT3=
EXTT4=
EXTT5=
EXTT6=
EXTT7=
EXTT8=
EXTT9=
EXTT10=
EXTT11=
EXTT12=
EXTT13=
EXTT14=
PLAYORDER=
